<?xml version="1.0" encoding="utf-8"?>
<svg version="1.1" id="flag-icons-us"
xmlns="http://www.w3.org/2000/svg"
xmlns:xlink="http://www.w3.org/1999/xlink" x="0px" y="0px" viewBox="0 0 45 30" style="enable-background:new 0 0 45 30;" xml:space="preserve">
<style type="text/css">
.st0{fill:#BD3D44;}
.st1{stroke:#FFFFFF;stroke-width:2;}
.st2{fill:#192F5D;}
.st3{fill:#FFFFFF;}
</style>
<path class="st0" d="M0,0h45v30H0"/>
<path class="st1" d="M0,3.5h45 M0,8.1h45 M0,12.7h45 M0,17.3h45 M0,21.9h45 M0,26.6h45"/>
<path class="st2" d="M0,0h25.6v16.2H0"/>
<path class="st2" d="M0,0"/>
<path class="st3" d="M2.1,0.7l0.6,1.7L1.1,1.3h2L1.5,2.4L2.1,0.7z"/>
<path class="st3" d="M6.4,0.7L7,2.4L5.4,1.3h2L5.8,2.4L6.4,0.7z"/>
<path class="st3" d="M10.7,0.7l0.6,1.7L9.7,1.3h2l-1.6,1.1L10.7,0.7z"/>
<path class="st3" d="M15,0.7l0.6,1.7L14,1.3h2l-1.6,1.1L15,0.7z"/>
<path class="st3" d="M19.3,0.7l0.6,1.7l-1.6-1.1h2l-1.6,1.1L19.3,0.7z"/>
<path class="st3" d="M23.5,0.7l0.6,1.7l-1.6-1.1h2l-1.6,1.1L23.5,0.7z"/>
<path class="st3" d="M4.3,2.3L4.9,4L3.3,2.9h2L3.7,4L4.3,2.3z"/>
<path class="st3" d="M8.6,2.3L9.2,4L7.6,2.9h2L7.9,4L8.6,2.3z"/>
<path class="st3" d="M12.9,2.3L13.5,4l-1.6-1.1h2L12.2,4L12.9,2.3z"/>
<path class="st3" d="M17.1,2.3L17.7,4l-1.6-1.1h2L16.4,4L17.1,2.3z"/>
<path class="st3" d="M21.4,2.3L22,4l-1.6-1.1h2L20.7,4L21.4,2.3z"/>
<path class="st3" d="M2.1,3.9l0.6,1.7L1.1,4.6h2L1.5,5.6L2.1,3.9z"/>
<path class="st3" d="M6.4,3.9L7,5.6L5.4,4.6h2L5.8,5.6L6.4,3.9z"/>
<path class="st3" d="M10.7,3.9l0.6,1.7L9.7,4.6h2l-1.6,1.1L10.7,3.9z"/>
<path class="st3" d="M15,3.9l0.6,1.7L14,4.6h2l-1.6,1.1L15,3.9z"/>
<path class="st3" d="M19.3,3.9l0.6,1.7l-1.6-1.1h2l-1.6,1.1L19.3,3.9z"/>
<path class="st3" d="M23.5,3.9l0.6,1.7l-1.6-1.1h2l-1.6,1.1L23.5,3.9z"/>
<path class="st3" d="M4.3,5.6l0.6,1.7L3.3,6.2h2L3.7,7.2L4.3,5.6z"/>
<path class="st3" d="M8.6,5.6l0.6,1.7L7.6,6.2h2L7.9,7.2L8.6,5.6z"/>
<path class="st3" d="M12.9,5.6l0.6,1.7l-1.6-1.1h2l-1.6,1.1L12.9,5.6z"/>
<path class="st3" d="M17.1,5.6l0.6,1.7l-1.6-1.1h2l-1.6,1.1L17.1,5.6z"/>
<path class="st3" d="M21.4,5.6L22,7.2l-1.6-1.1h2l-1.6,1.1L21.4,5.6z"/>
<path class="st3" d="M2.1,7.2l0.6,1.7L1.1,7.8h2L1.5,8.9L2.1,7.2z"/>
<path class="st3" d="M6.4,7.2L7,8.9L5.4,7.8h2L5.8,8.9L6.4,7.2z"/>
<path class="st3" d="M10.7,7.2l0.6,1.7L9.7,7.8h2l-1.6,1.1L10.7,7.2z"/>
<path class="st3" d="M15,7.2l0.6,1.7L14,7.8h2l-1.6,1.1L15,7.2z"/>
<path class="st3" d="M19.3,7.2l0.6,1.7l-1.6-1.1h2l-1.6,1.1L19.3,7.2z"/>
<path class="st3" d="M23.5,7.2l0.6,1.7l-1.6-1.1h2l-1.6,1.1L23.5,7.2z"/>
<path class="st3" d="M4.3,8.8l0.6,1.7L3.3,9.4h2l-1.6,1.1L4.3,8.8z"/>
<path class="st3" d="M8.6,8.8l0.6,1.7L7.6,9.4h2l-1.6,1.1L8.6,8.8z"/>
<path class="st3" d="M12.9,8.8l0.6,1.7l-1.6-1.1h2l-1.6,1.1L12.9,8.8z"/>
<path class="st3" d="M17.1,8.8l0.6,1.7l-1.6-1.1h2l-1.6,1.1L17.1,8.8z"/>
<path class="st3" d="M21.4,8.8l0.6,1.7l-1.6-1.1h2l-1.6,1.1L21.4,8.8z"/>
<path class="st3" d="M2.1,10.4l0.6,1.7L1.1,11h2l-1.6,1.1L2.1,10.4z"/>
<path class="st3" d="M6.4,10.4L7,12.1L5.4,11h2l-1.6,1.1L6.4,10.4z"/>
<path class="st3" d="M10.7,10.4l0.6,1.7L9.7,11h2L10,12.1L10.7,10.4z"/>
<path class="st3" d="M15,10.4l0.6,1.7L14,11h2l-1.6,1.1L15,10.4z"/>
<path class="st3" d="M19.3,10.4l0.6,1.7L18.3,11h2l-1.6,1.1L19.3,10.4z"/>
<path class="st3" d="M23.5,10.4l0.6,1.7L22.5,11h2l-1.6,1.1L23.5,10.4z"/>
<path class="st3" d="M4.3,12l0.6,1.7l-1.6-1.1h2l-1.6,1.1L4.3,12z"/>
<path class="st3" d="M8.6,12l0.6,1.7l-1.6-1.1h2l-1.6,1.1L8.6,12z"/>
<path class="st3" d="M12.9,12l0.6,1.7l-1.6-1.1h2l-1.6,1.1L12.9,12z"/>
<path class="st3" d="M17.1,12l0.6,1.7l-1.6-1.1h2l-1.6,1.1L17.1,12z"/>
<path class="st3" d="M21.4,12l0.6,1.7l-1.6-1.1h2l-1.6,1.1L21.4,12z"/>
<path class="st3" d="M2.1,13.6l0.6,1.7l-1.6-1.1h2l-1.6,1.1L2.1,13.6z"/>
<path class="st3" d="M6.4,13.6L7,15.3l-1.6-1.1h2l-1.6,1.1L6.4,13.6z"/>
<path class="st3" d="M10.7,13.6l0.6,1.7l-1.6-1.1h2L10,15.3L10.7,13.6z"/>
<path class="st3" d="M15,13.6l0.6,1.7L14,14.2h2l-1.6,1.1L15,13.6z"/>
<path class="st3" d="M19.3,13.6l0.6,1.7l-1.6-1.1h2l-1.6,1.1L19.3,13.6z"/>
<path class="st3" d="M23.5,13.6l0.6,1.7l-1.6-1.1h2l-1.6,1.1L23.5,13.6z"/>
<path marker-mid="url(#us-a)" class="st3" d="M22.5,13.6"/>
</svg>
