<svg width="512" height="512" viewBox="0 0 512 512" fill="none" xmlns="http://www.w3.org/2000/svg">
<rect width="512" height="512" rx="64" fill="white"/>
<path d="M416 110H175.999C170.695 110 165.609 112.107 161.858 115.858C158.107 119.609 156 124.696 156 130V330C156 335.304 158.107 340.391 161.858 344.142C165.609 347.893 170.695 350 175.999 350H236V410L335.999 350H416C421.304 350 426.392 347.893 430.142 344.142C433.892 340.391 436 335.304 436 330V130C436 124.696 433.892 119.609 430.142 115.858C426.392 112.107 421.304 110 416 110Z" fill="#AAA6F2"/>
<path d="M156 430H96C90.6957 430 85.6086 427.893 81.8578 424.143C78.1071 420.392 76 415.304 76 410V190" stroke="black" stroke-width="50" stroke-linecap="round" stroke-linejoin="round"/>
<path d="M416 110H175.999C170.695 110 165.609 112.107 161.858 115.858C158.107 119.609 156 124.696 156 130V330C156 335.304 158.107 340.391 161.858 344.142C165.609 347.893 170.695 350 175.999 350H236V410L335.999 350H416C421.304 350 426.392 347.893 430.142 344.142C433.892 340.391 436 335.304 436 330V130C436 124.696 433.892 119.609 430.142 115.858C426.392 112.107 421.304 110 416 110Z" fill="#AAA6F2" stroke="black" stroke-width="50" stroke-linecap="round" stroke-linejoin="round"/>
</svg>
