<svg width="512" height="512" viewBox="0 0 512 512" fill="none" xmlns="http://www.w3.org/2000/svg">
<path d="M445.389 67H162.055C155.793 67 149.788 69.4876 145.36 73.9155C140.932 78.3435 138.444 84.3491 138.444 90.6111V326.722C138.444 332.984 140.932 338.99 145.36 343.418C149.788 347.846 155.793 350.333 162.055 350.333H232.889V421.167L350.944 350.333H445.389C451.651 350.333 457.657 347.846 462.084 343.418C466.512 338.99 469 332.984 469 326.722V90.6111C469 84.3491 466.512 78.3435 462.084 73.9155C457.657 69.4876 451.651 67 445.389 67Z" fill="#AAA6F2"/>
<path d="M138.444 444.778H67.6111C61.3491 444.778 55.3435 442.29 50.9155 437.863C46.4876 433.435 44 427.429 44 421.167V161.445" stroke="black" stroke-width="66.6667" stroke-linecap="round" stroke-linejoin="round"/>
<path d="M445.389 67H162.055C155.793 67 149.788 69.4876 145.36 73.9155C140.932 78.3435 138.444 84.3491 138.444 90.6111V326.722C138.444 332.984 140.932 338.99 145.36 343.418C149.788 347.846 155.793 350.333 162.055 350.333H232.889V421.167L350.944 350.333H445.389C451.651 350.333 457.657 347.846 462.084 343.418C466.512 338.99 469 332.984 469 326.722V90.6111C469 84.3491 466.512 78.3435 462.084 73.9155C457.657 69.4876 451.651 67 445.389 67Z" fill="#AAA6F2" stroke="black" stroke-width="66.6667" stroke-linecap="round" stroke-linejoin="round"/>
</svg>
